<svg width="337" height="335" viewBox="0 0 337 335" fill="none" xmlns="http://www.w3.org/2000/svg">
<path d="M95.774 8.718C95.774 7.494 96.05 6.396 96.602 5.424C97.154 4.44 97.904 3.672 98.852 3.12C99.812 2.568 100.874 2.292 102.038 2.292C103.406 2.292 104.6 2.622 105.62 3.282C106.64 3.942 107.384 4.878 107.852 6.09H105.89C105.542 5.334 105.038 4.752 104.378 4.344C103.73 3.936 102.95 3.732 102.038 3.732C101.162 3.732 100.376 3.936 99.68 4.344C98.984 4.752 98.438 5.334 98.042 6.09C97.646 6.834 97.448 7.71 97.448 8.718C97.448 9.714 97.646 10.59 98.042 11.346C98.438 12.09 98.984 12.666 99.68 13.074C100.376 13.482 101.162 13.686 102.038 13.686C102.95 13.686 103.73 13.488 104.378 13.092C105.038 12.684 105.542 12.102 105.89 11.346H107.852C107.384 12.546 106.64 13.476 105.62 14.136C104.6 14.784 103.406 15.108 102.038 15.108C100.874 15.108 99.812 14.838 98.852 14.298C97.904 13.746 97.154 12.984 96.602 12.012C96.05 11.04 95.774 9.942 95.774 8.718ZM119.038 5.136V15H117.4V13.542C117.088 14.046 116.65 14.442 116.086 14.73C115.534 15.006 114.922 15.144 114.25 15.144C113.482 15.144 112.792 14.988 112.18 14.676C111.568 14.352 111.082 13.872 110.722 13.236C110.374 12.6 110.2 11.826 110.2 10.914V5.136H111.82V10.698C111.82 11.67 112.066 12.42 112.558 12.948C113.05 13.464 113.722 13.722 114.574 13.722C115.45 13.722 116.14 13.452 116.644 12.912C117.148 12.372 117.4 11.586 117.4 10.554V5.136H119.038ZM123.442 6.738C123.73 6.174 124.138 5.736 124.666 5.424C125.206 5.112 125.86 4.956 126.628 4.956V6.648H126.196C124.36 6.648 123.442 7.644 123.442 9.636V15H121.804V5.136H123.442V6.738ZM130.157 6.738C130.445 6.174 130.853 5.736 131.381 5.424C131.921 5.112 132.575 4.956 133.343 4.956V6.648H132.911C131.075 6.648 130.157 7.644 130.157 9.636V15H128.519V5.136H130.157V6.738ZM144.234 9.69C144.234 10.002 144.216 10.332 144.18 10.68H136.296C136.356 11.652 136.686 12.414 137.286 12.966C137.898 13.506 138.636 13.776 139.5 13.776C140.208 13.776 140.796 13.614 141.264 13.29C141.744 12.954 142.08 12.51 142.272 11.958H144.036C143.772 12.906 143.244 13.68 142.452 14.28C141.66 14.868 140.676 15.162 139.5 15.162C138.564 15.162 137.724 14.952 136.98 14.532C136.248 14.112 135.672 13.518 135.252 12.75C134.832 11.97 134.622 11.07 134.622 10.05C134.622 9.03 134.826 8.136 135.234 7.368C135.642 6.6 136.212 6.012 136.944 5.604C137.688 5.184 138.54 4.974 139.5 4.974C140.436 4.974 141.264 5.178 141.984 5.586C142.704 5.994 143.256 6.558 143.64 7.278C144.036 7.986 144.234 8.79 144.234 9.69ZM142.542 9.348C142.542 8.724 142.404 8.19 142.128 7.746C141.852 7.29 141.474 6.948 140.994 6.72C140.526 6.48 140.004 6.36 139.428 6.36C138.6 6.36 137.892 6.624 137.304 7.152C136.728 7.68 136.398 8.412 136.314 9.348H142.542ZM151.202 4.956C152.402 4.956 153.374 5.322 154.118 6.054C154.862 6.774 155.234 7.818 155.234 9.186V15H153.614V9.42C153.614 8.436 153.368 7.686 152.876 7.17C152.384 6.642 151.712 6.378 150.86 6.378C149.996 6.378 149.306 6.648 148.79 7.188C148.286 7.728 148.034 8.514 148.034 9.546V15H146.396V5.136H148.034V6.54C148.358 6.036 148.796 5.646 149.348 5.37C149.912 5.094 150.53 4.956 151.202 4.956ZM159.907 6.486V12.3C159.907 12.78 160.009 13.122 160.213 13.326C160.417 13.518 160.771 13.614 161.275 13.614H162.481V15H161.005C160.093 15 159.409 14.79 158.953 14.37C158.497 13.95 158.269 13.26 158.269 12.3V6.486H156.991V5.136H158.269V2.652H159.907V5.136H162.481V6.486H159.907ZM175.547 8.538C176.003 8.61 176.417 8.796 176.789 9.096C177.173 9.396 177.473 9.768 177.689 10.212C177.917 10.656 178.031 11.13 178.031 11.634C178.031 12.27 177.869 12.846 177.545 13.362C177.221 13.866 176.747 14.268 176.123 14.568C175.511 14.856 174.785 15 173.945 15H169.265V2.454H173.765C174.617 2.454 175.343 2.598 175.943 2.886C176.543 3.162 176.993 3.54 177.293 4.02C177.593 4.5 177.743 5.04 177.743 5.64C177.743 6.384 177.539 7.002 177.131 7.494C176.735 7.974 176.207 8.322 175.547 8.538ZM170.903 7.872H173.657C174.425 7.872 175.019 7.692 175.439 7.332C175.859 6.972 176.069 6.474 176.069 5.838C176.069 5.202 175.859 4.704 175.439 4.344C175.019 3.984 174.413 3.804 173.621 3.804H170.903V7.872ZM173.801 13.65C174.617 13.65 175.253 13.458 175.709 13.074C176.165 12.69 176.393 12.156 176.393 11.472C176.393 10.776 176.153 10.23 175.673 9.834C175.193 9.426 174.551 9.222 173.747 9.222H170.903V13.65H173.801ZM179.692 10.032C179.692 9.024 179.896 8.142 180.304 7.386C180.712 6.618 181.27 6.024 181.978 5.604C182.698 5.184 183.496 4.974 184.372 4.974C185.236 4.974 185.986 5.16 186.622 5.532C187.258 5.904 187.732 6.372 188.044 6.936V5.136H189.7V15H188.044V13.164C187.72 13.74 187.234 14.22 186.586 14.604C185.95 14.976 185.206 15.162 184.354 15.162C183.478 15.162 182.686 14.946 181.978 14.514C181.27 14.082 180.712 13.476 180.304 12.696C179.896 11.916 179.692 11.028 179.692 10.032ZM188.044 10.05C188.044 9.306 187.894 8.658 187.594 8.106C187.294 7.554 186.886 7.134 186.37 6.846C185.866 6.546 185.308 6.396 184.696 6.396C184.084 6.396 183.526 6.54 183.022 6.828C182.518 7.116 182.116 7.536 181.816 8.088C181.516 8.64 181.366 9.288 181.366 10.032C181.366 10.788 181.516 11.448 181.816 12.012C182.116 12.564 182.518 12.99 183.022 13.29C183.526 13.578 184.084 13.722 184.696 13.722C185.308 13.722 185.866 13.578 186.37 13.29C186.886 12.99 187.294 12.564 187.594 12.012C187.894 11.448 188.044 10.794 188.044 10.05ZM194.106 1.68V15H192.468V1.68H194.106ZM196.286 10.032C196.286 9.024 196.49 8.142 196.898 7.386C197.306 6.618 197.864 6.024 198.572 5.604C199.292 5.184 200.09 4.974 200.966 4.974C201.83 4.974 202.58 5.16 203.216 5.532C203.852 5.904 204.326 6.372 204.638 6.936V5.136H206.294V15H204.638V13.164C204.314 13.74 203.828 14.22 203.18 14.604C202.544 14.976 201.8 15.162 200.948 15.162C200.072 15.162 199.28 14.946 198.572 14.514C197.864 14.082 197.306 13.476 196.898 12.696C196.49 11.916 196.286 11.028 196.286 10.032ZM204.638 10.05C204.638 9.306 204.488 8.658 204.188 8.106C203.888 7.554 203.48 7.134 202.964 6.846C202.46 6.546 201.902 6.396 201.29 6.396C200.678 6.396 200.12 6.54 199.616 6.828C199.112 7.116 198.71 7.536 198.41 8.088C198.11 8.64 197.96 9.288 197.96 10.032C197.96 10.788 198.11 11.448 198.41 12.012C198.71 12.564 199.112 12.99 199.616 13.29C200.12 13.578 200.678 13.722 201.29 13.722C201.902 13.722 202.46 13.578 202.964 13.29C203.48 12.99 203.888 12.564 204.188 12.012C204.488 11.448 204.638 10.794 204.638 10.05ZM213.868 4.956C215.068 4.956 216.04 5.322 216.784 6.054C217.528 6.774 217.9 7.818 217.9 9.186V15H216.28V9.42C216.28 8.436 216.034 7.686 215.542 7.17C215.05 6.642 214.378 6.378 213.526 6.378C212.662 6.378 211.972 6.648 211.456 7.188C210.952 7.728 210.7 8.514 210.7 9.546V15H209.062V5.136H210.7V6.54C211.024 6.036 211.462 5.646 212.014 5.37C212.578 5.094 213.196 4.956 213.868 4.956ZM219.963 10.05C219.963 9.03 220.167 8.142 220.575 7.386C220.983 6.618 221.547 6.024 222.267 5.604C222.999 5.184 223.833 4.974 224.769 4.974C225.981 4.974 226.977 5.268 227.757 5.856C228.549 6.444 229.071 7.26 229.323 8.304H227.559C227.391 7.704 227.061 7.23 226.569 6.882C226.089 6.534 225.489 6.36 224.769 6.36C223.833 6.36 223.077 6.684 222.501 7.332C221.925 7.968 221.637 8.874 221.637 10.05C221.637 11.238 221.925 12.156 222.501 12.804C223.077 13.452 223.833 13.776 224.769 13.776C225.489 13.776 226.089 13.608 226.569 13.272C227.049 12.936 227.379 12.456 227.559 11.832H229.323C229.059 12.84 228.531 13.65 227.739 14.262C226.947 14.862 225.957 15.162 224.769 15.162C223.833 15.162 222.999 14.952 222.267 14.532C221.547 14.112 220.983 13.518 220.575 12.75C220.167 11.982 219.963 11.082 219.963 10.05ZM240.509 9.69C240.509 10.002 240.491 10.332 240.455 10.68H232.571C232.631 11.652 232.961 12.414 233.561 12.966C234.173 13.506 234.911 13.776 235.775 13.776C236.483 13.776 237.071 13.614 237.539 13.29C238.019 12.954 238.355 12.51 238.547 11.958H240.311C240.047 12.906 239.519 13.68 238.727 14.28C237.935 14.868 236.951 15.162 235.775 15.162C234.839 15.162 233.999 14.952 233.255 14.532C232.523 14.112 231.947 13.518 231.527 12.75C231.107 11.97 230.897 11.07 230.897 10.05C230.897 9.03 231.101 8.136 231.509 7.368C231.917 6.6 232.487 6.012 233.219 5.604C233.963 5.184 234.815 4.974 235.775 4.974C236.711 4.974 237.539 5.178 238.259 5.586C238.979 5.994 239.531 6.558 239.915 7.278C240.311 7.986 240.509 8.79 240.509 9.69ZM238.817 9.348C238.817 8.724 238.679 8.19 238.403 7.746C238.127 7.29 237.749 6.948 237.269 6.72C236.801 6.48 236.279 6.36 235.703 6.36C234.875 6.36 234.167 6.624 233.579 7.152C233.003 7.68 232.673 8.412 232.589 9.348H238.817Z" fill="#A2A2A7"/>
<path d="M118.144 48.852C118.144 49.7187 117.927 50.5333 117.494 51.296C117.078 52.0587 116.454 52.7 115.622 53.22C114.807 53.74 113.837 54.052 112.71 54.156V56.262H111.02V54.156C109.391 54 108.073 53.4887 107.068 52.622C106.063 51.7553 105.56 50.6113 105.56 49.19H108.732C108.784 49.866 109.001 50.4293 109.382 50.88C109.763 51.3133 110.309 51.5907 111.02 51.712V45.992C109.859 45.6973 108.914 45.4027 108.186 45.108C107.458 44.796 106.834 44.3107 106.314 43.652C105.811 42.9933 105.56 42.092 105.56 40.948C105.56 39.5093 106.063 38.322 107.068 37.386C108.073 36.4327 109.391 35.878 111.02 35.722V33.616H112.71V35.722C114.235 35.8607 115.457 36.346 116.376 37.178C117.312 37.9927 117.841 39.1193 117.962 40.558H114.79C114.738 40.0207 114.53 39.544 114.166 39.128C113.802 38.6947 113.317 38.4 112.71 38.244V43.86C113.871 44.1373 114.816 44.432 115.544 44.744C116.272 45.0387 116.887 45.5153 117.39 46.174C117.893 46.8153 118.144 47.708 118.144 48.852ZM108.576 40.792C108.576 41.5027 108.784 42.0573 109.2 42.456C109.633 42.8547 110.24 43.1753 111.02 43.418V38.166C110.275 38.2527 109.677 38.5213 109.226 38.972C108.793 39.4227 108.576 40.0293 108.576 40.792ZM112.71 51.712C113.473 51.5907 114.071 51.2873 114.504 50.802C114.937 50.2993 115.154 49.7013 115.154 49.008C115.154 48.3147 114.937 47.7773 114.504 47.396C114.088 46.9973 113.49 46.6767 112.71 46.434V51.712ZM125.668 44.094C123.865 43.1927 122.964 41.7713 122.964 39.83C122.964 38.894 123.198 38.036 123.666 37.256C124.134 36.476 124.836 35.8607 125.772 35.41C126.708 34.942 127.852 34.708 129.204 34.708C130.539 34.708 131.674 34.942 132.61 35.41C133.563 35.8607 134.274 36.476 134.742 37.256C135.21 38.036 135.444 38.894 135.444 39.83C135.444 40.8007 135.193 41.6587 134.69 42.404C134.205 43.132 133.555 43.6953 132.74 44.094C133.728 44.458 134.508 45.056 135.08 45.888C135.652 46.7027 135.938 47.6647 135.938 48.774C135.938 49.9007 135.652 50.8973 135.08 51.764C134.508 52.6307 133.711 53.298 132.688 53.766C131.665 54.234 130.504 54.468 129.204 54.468C127.904 54.468 126.743 54.234 125.72 53.766C124.715 53.298 123.926 52.6307 123.354 51.764C122.782 50.8973 122.496 49.9007 122.496 48.774C122.496 47.6473 122.782 46.6767 123.354 45.862C123.926 45.0473 124.697 44.458 125.668 44.094ZM132.61 40.194C132.61 39.2233 132.307 38.478 131.7 37.958C131.093 37.438 130.261 37.178 129.204 37.178C128.164 37.178 127.341 37.438 126.734 37.958C126.127 38.478 125.824 39.232 125.824 40.22C125.824 41.0867 126.136 41.7973 126.76 42.352C127.401 42.8893 128.216 43.158 129.204 43.158C130.192 43.158 131.007 42.8807 131.648 42.326C132.289 41.7713 132.61 41.0607 132.61 40.194ZM129.204 45.394C128.06 45.394 127.124 45.68 126.396 46.252C125.685 46.8067 125.33 47.6127 125.33 48.67C125.33 49.658 125.677 50.464 126.37 51.088C127.063 51.6947 128.008 51.998 129.204 51.998C130.383 51.998 131.31 51.686 131.986 51.062C132.679 50.438 133.026 49.6407 133.026 48.67C133.026 47.63 132.671 46.824 131.96 46.252C131.267 45.68 130.348 45.394 129.204 45.394ZM142.69 50.438L139.544 57.614H137.62L139.466 50.438H142.69ZM157.11 37.594H148.4V42.768C148.764 42.2827 149.301 41.8753 150.012 41.546C150.74 41.2167 151.511 41.052 152.326 41.052C153.782 41.052 154.961 41.364 155.862 41.988C156.781 42.612 157.431 43.4007 157.812 44.354C158.211 45.3073 158.41 46.3127 158.41 47.37C158.41 48.6527 158.159 49.7967 157.656 50.802C157.171 51.79 156.434 52.57 155.446 53.142C154.475 53.714 153.279 54 151.858 54C149.969 54 148.452 53.532 147.308 52.596C146.164 51.66 145.479 50.4207 145.254 48.878H148.14C148.331 49.6927 148.755 50.3427 149.414 50.828C150.073 51.296 150.896 51.53 151.884 51.53C153.115 51.53 154.033 51.1573 154.64 50.412C155.264 49.6667 155.576 48.6787 155.576 47.448C155.576 46.2 155.264 45.2467 154.64 44.588C154.016 43.912 153.097 43.574 151.884 43.574C151.035 43.574 150.315 43.7907 149.726 44.224C149.154 44.64 148.738 45.212 148.478 45.94H145.67V34.994H157.11V37.594ZM161.132 50.048V47.812L169.868 35.28H173.456V47.474H175.874V50.048H173.456V54H170.544V50.048H161.132ZM170.674 38.296L164.538 47.474H170.674V38.296ZM190.55 37.594H181.84V42.768C182.204 42.2827 182.741 41.8753 183.452 41.546C184.18 41.2167 184.951 41.052 185.766 41.052C187.222 41.052 188.4 41.364 189.302 41.988C190.22 42.612 190.87 43.4007 191.252 44.354C191.65 45.3073 191.85 46.3127 191.85 47.37C191.85 48.6527 191.598 49.7967 191.096 50.802C190.61 51.79 189.874 52.57 188.886 53.142C187.915 53.714 186.719 54 185.298 54C183.408 54 181.892 53.532 180.748 52.596C179.604 51.66 178.919 50.4207 178.694 48.878H181.58C181.77 49.6927 182.195 50.3427 182.854 50.828C183.512 51.296 184.336 51.53 185.324 51.53C186.554 51.53 187.473 51.1573 188.08 50.412C188.704 49.6667 189.016 48.6787 189.016 47.448C189.016 46.2 188.704 45.2467 188.08 44.588C187.456 43.912 186.537 43.574 185.324 43.574C184.474 43.574 183.755 43.7907 183.166 44.224C182.594 44.64 182.178 45.212 181.918 45.94H179.11V34.994H190.55V37.594ZM196.521 54.182C195.984 54.182 195.533 54 195.169 53.636C194.805 53.272 194.623 52.8213 194.623 52.284C194.623 51.7467 194.805 51.296 195.169 50.932C195.533 50.568 195.984 50.386 196.521 50.386C197.041 50.386 197.483 50.568 197.847 50.932C198.211 51.296 198.393 51.7467 198.393 52.284C198.393 52.8213 198.211 53.272 197.847 53.636C197.483 54 197.041 54.182 196.521 54.182ZM201.206 44.276C201.206 41.2773 201.709 38.9373 202.714 37.256C203.737 35.5573 205.488 34.708 207.966 34.708C210.445 34.708 212.187 35.5573 213.192 37.256C214.215 38.9373 214.726 41.2773 214.726 44.276C214.726 47.3093 214.215 49.684 213.192 51.4C212.187 53.0987 210.445 53.948 207.966 53.948C205.488 53.948 203.737 53.0987 202.714 51.4C201.709 49.684 201.206 47.3093 201.206 44.276ZM211.814 44.276C211.814 42.872 211.719 41.6847 211.528 40.714C211.355 39.7433 210.991 38.9547 210.436 38.348C209.882 37.724 209.058 37.412 207.966 37.412C206.874 37.412 206.051 37.724 205.496 38.348C204.942 38.9547 204.569 39.7433 204.378 40.714C204.205 41.6847 204.118 42.872 204.118 44.276C204.118 45.732 204.205 46.954 204.378 47.942C204.552 48.93 204.916 49.7273 205.47 50.334C206.042 50.9407 206.874 51.244 207.966 51.244C209.058 51.244 209.882 50.9407 210.436 50.334C211.008 49.7273 211.381 48.93 211.554 47.942C211.728 46.954 211.814 45.732 211.814 44.276ZM217.863 44.276C217.863 41.2773 218.365 38.9373 219.371 37.256C220.393 35.5573 222.144 34.708 224.623 34.708C227.101 34.708 228.843 35.5573 229.849 37.256C230.871 38.9373 231.383 41.2773 231.383 44.276C231.383 47.3093 230.871 49.684 229.849 51.4C228.843 53.0987 227.101 53.948 224.623 53.948C222.144 53.948 220.393 53.0987 219.371 51.4C218.365 49.684 217.863 47.3093 217.863 44.276ZM228.471 44.276C228.471 42.872 228.375 41.6847 228.185 40.714C228.011 39.7433 227.647 38.9547 227.093 38.348C226.538 37.724 225.715 37.412 224.623 37.412C223.531 37.412 222.707 37.724 222.153 38.348C221.598 38.9547 221.225 39.7433 221.035 40.714C220.861 41.6847 220.775 42.872 220.775 44.276C220.775 45.732 220.861 46.954 221.035 47.942C221.208 48.93 221.572 49.7273 222.127 50.334C222.699 50.9407 223.531 51.244 224.623 51.244C225.715 51.244 226.538 50.9407 227.093 50.334C227.665 49.7273 228.037 48.93 228.211 47.942C228.384 46.954 228.471 45.732 228.471 44.276Z" fill="#1E1E2D"/>
<path d="M6.895 326.105C5.925 326.105 5.04 325.88 4.24 325.43C3.44 324.97 2.805 324.335 2.335 323.525C1.875 322.705 1.645 321.785 1.645 320.765C1.645 319.745 1.875 318.83 2.335 318.02C2.805 317.2 3.44 316.565 4.24 316.115C5.04 315.655 5.925 315.425 6.895 315.425C7.875 315.425 8.765 315.655 9.565 316.115C10.365 316.565 10.995 317.195 11.455 318.005C11.915 318.815 12.145 319.735 12.145 320.765C12.145 321.795 11.915 322.715 11.455 323.525C10.995 324.335 10.365 324.97 9.565 325.43C8.765 325.88 7.875 326.105 6.895 326.105ZM6.895 324.92C7.625 324.92 8.28 324.75 8.86 324.41C9.45 324.07 9.91 323.585 10.24 322.955C10.58 322.325 10.75 321.595 10.75 320.765C10.75 319.925 10.58 319.195 10.24 318.575C9.91 317.945 9.455 317.46 8.875 317.12C8.295 316.78 7.635 316.61 6.895 316.61C6.155 316.61 5.495 316.78 4.915 317.12C4.335 317.46 3.875 317.945 3.535 318.575C3.205 319.195 3.04 319.925 3.04 320.765C3.04 321.595 3.205 322.325 3.535 322.955C3.875 323.585 4.335 324.07 4.915 324.41C5.505 324.75 6.165 324.92 6.895 324.92ZM13.437 321.875C13.437 321.025 13.607 320.285 13.947 319.655C14.287 319.015 14.757 318.52 15.357 318.17C15.967 317.82 16.662 317.645 17.442 317.645C18.452 317.645 19.282 317.89 19.932 318.38C20.592 318.87 21.027 319.55 21.237 320.42H19.767C19.627 319.92 19.352 319.525 18.942 319.235C18.542 318.945 18.042 318.8 17.442 318.8C16.662 318.8 16.032 319.07 15.552 319.61C15.072 320.14 14.832 320.895 14.832 321.875C14.832 322.865 15.072 323.63 15.552 324.17C16.032 324.71 16.662 324.98 17.442 324.98C18.042 324.98 18.542 324.84 18.942 324.56C19.342 324.28 19.617 323.88 19.767 323.36H21.237C21.017 324.2 20.577 324.875 19.917 325.385C19.257 325.885 18.432 326.135 17.442 326.135C16.662 326.135 15.967 325.96 15.357 325.61C14.757 325.26 14.287 324.765 13.947 324.125C13.607 323.485 13.437 322.735 13.437 321.875ZM24.7233 318.905V323.75C24.7233 324.15 24.8083 324.435 24.9783 324.605C25.1483 324.765 25.4433 324.845 25.8633 324.845H26.8683V326H25.6383C24.8783 326 24.3083 325.825 23.9283 325.475C23.5483 325.125 23.3583 324.55 23.3583 323.75V318.905H22.2933V317.78H23.3583V315.71H24.7233V317.78H26.8683V318.905H24.7233Z" fill="#A2A2A7"/>
<path d="M66.375 326H65.01L59.52 317.675V326H58.155V315.53H59.52L65.01 323.84V315.53H66.375V326ZM72.2869 326.135C71.5169 326.135 70.8169 325.96 70.1869 325.61C69.5669 325.26 69.0769 324.765 68.7169 324.125C68.3669 323.475 68.1919 322.725 68.1919 321.875C68.1919 321.035 68.3719 320.295 68.7319 319.655C69.1019 319.005 69.6019 318.51 70.2319 318.17C70.8619 317.82 71.5669 317.645 72.3469 317.645C73.1269 317.645 73.8319 317.82 74.4619 318.17C75.0919 318.51 75.5869 319 75.9469 319.64C76.3169 320.28 76.5019 321.025 76.5019 321.875C76.5019 322.725 76.3119 323.475 75.9319 324.125C75.5619 324.765 75.0569 325.26 74.4169 325.61C73.7769 325.96 73.0669 326.135 72.2869 326.135ZM72.2869 324.935C72.7769 324.935 73.2369 324.82 73.6669 324.59C74.0969 324.36 74.4419 324.015 74.7019 323.555C74.9719 323.095 75.1069 322.535 75.1069 321.875C75.1069 321.215 74.9769 320.655 74.7169 320.195C74.4569 319.735 74.1169 319.395 73.6969 319.175C73.2769 318.945 72.8219 318.83 72.3319 318.83C71.8319 318.83 71.3719 318.945 70.9519 319.175C70.5419 319.395 70.2119 319.735 69.9619 320.195C69.7119 320.655 69.5869 321.215 69.5869 321.875C69.5869 322.545 69.7069 323.11 69.9469 323.57C70.1969 324.03 70.5269 324.375 70.9369 324.605C71.3469 324.825 71.7969 324.935 72.2869 324.935ZM81.3566 324.74L83.9066 317.78H85.3616L82.1366 326H80.5466L77.3216 317.78H78.7916L81.3566 324.74Z" fill="#A2A2A7"/>
<path d="M119.41 315.545C120.55 315.545 121.535 315.76 122.365 316.19C123.205 316.61 123.845 317.215 124.285 318.005C124.735 318.795 124.96 319.725 124.96 320.795C124.96 321.865 124.735 322.795 124.285 323.585C123.845 324.365 123.205 324.965 122.365 325.385C121.535 325.795 120.55 326 119.41 326H116.155V315.545H119.41ZM119.41 324.875C120.76 324.875 121.79 324.52 122.5 323.81C123.21 323.09 123.565 322.085 123.565 320.795C123.565 319.495 123.205 318.48 122.485 317.75C121.775 317.02 120.75 316.655 119.41 316.655H117.52V324.875H119.41ZM134.26 321.575C134.26 321.835 134.245 322.11 134.215 322.4H127.645C127.695 323.21 127.97 323.845 128.47 324.305C128.98 324.755 129.595 324.98 130.315 324.98C130.905 324.98 131.395 324.845 131.785 324.575C132.185 324.295 132.465 323.925 132.625 323.465H134.095C133.875 324.255 133.435 324.9 132.775 325.4C132.115 325.89 131.295 326.135 130.315 326.135C129.535 326.135 128.835 325.96 128.215 325.61C127.605 325.26 127.125 324.765 126.775 324.125C126.425 323.475 126.25 322.725 126.25 321.875C126.25 321.025 126.42 320.28 126.76 319.64C127.1 319 127.575 318.51 128.185 318.17C128.805 317.82 129.515 317.645 130.315 317.645C131.095 317.645 131.785 317.815 132.385 318.155C132.985 318.495 133.445 318.965 133.765 319.565C134.095 320.155 134.26 320.825 134.26 321.575ZM132.85 321.29C132.85 320.77 132.735 320.325 132.505 319.955C132.275 319.575 131.96 319.29 131.56 319.1C131.17 318.9 130.735 318.8 130.255 318.8C129.565 318.8 128.975 319.02 128.485 319.46C128.005 319.9 127.73 320.51 127.66 321.29H132.85ZM135.552 321.875C135.552 321.025 135.722 320.285 136.062 319.655C136.402 319.015 136.872 318.52 137.472 318.17C138.082 317.82 138.777 317.645 139.557 317.645C140.567 317.645 141.397 317.89 142.047 318.38C142.707 318.87 143.142 319.55 143.352 320.42H141.882C141.742 319.92 141.467 319.525 141.057 319.235C140.657 318.945 140.157 318.8 139.557 318.8C138.777 318.8 138.147 319.07 137.667 319.61C137.187 320.14 136.947 320.895 136.947 321.875C136.947 322.865 137.187 323.63 137.667 324.17C138.147 324.71 138.777 324.98 139.557 324.98C140.157 324.98 140.657 324.84 141.057 324.56C141.457 324.28 141.732 323.88 141.882 323.36H143.352C143.132 324.2 142.692 324.875 142.032 325.385C141.372 325.885 140.547 326.135 139.557 326.135C138.777 326.135 138.082 325.96 137.472 325.61C136.872 325.26 136.402 324.765 136.062 324.125C135.722 323.485 135.552 322.735 135.552 321.875Z" fill="#A2A2A7"/>
<path d="M257.065 315.545V316.655H252.52V320.18H256.21V321.29H252.52V326H251.155V315.545H257.065ZM266.214 321.575C266.214 321.835 266.199 322.11 266.169 322.4H259.599C259.649 323.21 259.924 323.845 260.424 324.305C260.934 324.755 261.549 324.98 262.269 324.98C262.859 324.98 263.349 324.845 263.739 324.575C264.139 324.295 264.419 323.925 264.579 323.465H266.049C265.829 324.255 265.389 324.9 264.729 325.4C264.069 325.89 263.249 326.135 262.269 326.135C261.489 326.135 260.789 325.96 260.169 325.61C259.559 325.26 259.079 324.765 258.729 324.125C258.379 323.475 258.204 322.725 258.204 321.875C258.204 321.025 258.374 320.28 258.714 319.64C259.054 319 259.529 318.51 260.139 318.17C260.759 317.82 261.469 317.645 262.269 317.645C263.049 317.645 263.739 317.815 264.339 318.155C264.939 318.495 265.399 318.965 265.719 319.565C266.049 320.155 266.214 320.825 266.214 321.575ZM264.804 321.29C264.804 320.77 264.689 320.325 264.459 319.955C264.229 319.575 263.914 319.29 263.514 319.1C263.124 318.9 262.689 318.8 262.209 318.8C261.519 318.8 260.929 319.02 260.439 319.46C259.959 319.9 259.684 320.51 259.614 321.29H264.804ZM269.38 319.31C269.66 318.82 270.07 318.42 270.61 318.11C271.15 317.8 271.765 317.645 272.455 317.645C273.195 317.645 273.86 317.82 274.45 318.17C275.04 318.52 275.505 319.015 275.845 319.655C276.185 320.285 276.355 321.02 276.355 321.86C276.355 322.69 276.185 323.43 275.845 324.08C275.505 324.73 275.035 325.235 274.435 325.595C273.845 325.955 273.185 326.135 272.455 326.135C271.745 326.135 271.12 325.98 270.58 325.67C270.05 325.36 269.65 324.965 269.38 324.485V326H268.015V314.9H269.38V319.31ZM274.96 321.86C274.96 321.24 274.835 320.7 274.585 320.24C274.335 319.78 273.995 319.43 273.565 319.19C273.145 318.95 272.68 318.83 272.17 318.83C271.67 318.83 271.205 318.955 270.775 319.205C270.355 319.445 270.015 319.8 269.755 320.27C269.505 320.73 269.38 321.265 269.38 321.875C269.38 322.495 269.505 323.04 269.755 323.51C270.015 323.97 270.355 324.325 270.775 324.575C271.205 324.815 271.67 324.935 272.17 324.935C272.68 324.935 273.145 324.815 273.565 324.575C273.995 324.325 274.335 323.97 274.585 323.51C274.835 323.04 274.96 322.49 274.96 321.86Z" fill="#A2A2A7"/>
<path d="M318.76 315.62V326H317.395V318.26L313.945 326H312.985L309.52 318.245V326H308.155V315.62H309.625L313.465 324.2L317.305 315.62H318.76ZM320.565 321.86C320.565 321.02 320.735 320.285 321.075 319.655C321.415 319.015 321.88 318.52 322.47 318.17C323.07 317.82 323.735 317.645 324.465 317.645C325.185 317.645 325.81 317.8 326.34 318.11C326.87 318.42 327.265 318.81 327.525 319.28V317.78H328.905V326H327.525V324.47C327.255 324.95 326.85 325.35 326.31 325.67C325.78 325.98 325.16 326.135 324.45 326.135C323.72 326.135 323.06 325.955 322.47 325.595C321.88 325.235 321.415 324.73 321.075 324.08C320.735 323.43 320.565 322.69 320.565 321.86ZM327.525 321.875C327.525 321.255 327.4 320.715 327.15 320.255C326.9 319.795 326.56 319.445 326.13 319.205C325.71 318.955 325.245 318.83 324.735 318.83C324.225 318.83 323.76 318.95 323.34 319.19C322.92 319.43 322.585 319.78 322.335 320.24C322.085 320.7 321.96 321.24 321.96 321.86C321.96 322.49 322.085 323.04 322.335 323.51C322.585 323.97 322.92 324.325 323.34 324.575C323.76 324.815 324.225 324.935 324.735 324.935C325.245 324.935 325.71 324.815 326.13 324.575C326.56 324.325 326.9 323.97 327.15 323.51C327.4 323.04 327.525 322.495 327.525 321.875ZM332.577 319.115C332.817 318.645 333.157 318.28 333.597 318.02C334.047 317.76 334.592 317.63 335.232 317.63V319.04H334.872C333.342 319.04 332.577 319.87 332.577 321.53V326H331.212V317.78H332.577V319.115Z" fill="#A2A2A7"/>
<path d="M174 315C174 310.582 177.582 307 182 307H213C217.418 307 221 310.582 221 315V327C221 331.418 217.418 335 213 335H182C177.582 335 174 331.418 174 327V315Z" fill="#0066FF"/>
<path d="M190.42 315.545V323.27C190.42 324.13 190.155 324.82 189.625 325.34C189.095 325.85 188.395 326.105 187.525 326.105C186.645 326.105 185.94 325.845 185.41 325.325C184.88 324.795 184.615 324.075 184.615 323.165H185.98C185.99 323.675 186.12 324.09 186.37 324.41C186.63 324.73 187.015 324.89 187.525 324.89C188.035 324.89 188.415 324.74 188.665 324.44C188.915 324.13 189.04 323.74 189.04 323.27V315.545H190.42ZM192.599 321.86C192.599 321.02 192.769 320.285 193.109 319.655C193.449 319.015 193.914 318.52 194.504 318.17C195.104 317.82 195.769 317.645 196.499 317.645C197.219 317.645 197.844 317.8 198.374 318.11C198.904 318.42 199.299 318.81 199.559 319.28V317.78H200.939V326H199.559V324.47C199.289 324.95 198.884 325.35 198.344 325.67C197.814 325.98 197.194 326.135 196.484 326.135C195.754 326.135 195.094 325.955 194.504 325.595C193.914 325.235 193.449 324.73 193.109 324.08C192.769 323.43 192.599 322.69 192.599 321.86ZM199.559 321.875C199.559 321.255 199.434 320.715 199.184 320.255C198.934 319.795 198.594 319.445 198.164 319.205C197.744 318.955 197.279 318.83 196.769 318.83C196.259 318.83 195.794 318.95 195.374 319.19C194.954 319.43 194.619 319.78 194.369 320.24C194.119 320.7 193.994 321.24 193.994 321.86C193.994 322.49 194.119 323.04 194.369 323.51C194.619 323.97 194.954 324.325 195.374 324.575C195.794 324.815 196.259 324.935 196.769 324.935C197.279 324.935 197.744 324.815 198.164 324.575C198.594 324.325 198.934 323.97 199.184 323.51C199.434 323.04 199.559 322.495 199.559 321.875ZM207.251 317.63C208.251 317.63 209.061 317.935 209.681 318.545C210.301 319.145 210.611 320.015 210.611 321.155V326H209.261V321.35C209.261 320.53 209.056 319.905 208.646 319.475C208.236 319.035 207.676 318.815 206.966 318.815C206.246 318.815 205.671 319.04 205.241 319.49C204.821 319.94 204.611 320.595 204.611 321.455V326H203.246V317.78H204.611V318.95C204.881 318.53 205.246 318.205 205.706 317.975C206.176 317.745 206.691 317.63 207.251 317.63Z" fill="white"/>
<path d="M19 89V254.5" stroke="#F4F4F4" stroke-width="1.5" stroke-linecap="round"/>
<path d="M79 89V194.5" stroke="#F4F4F4" stroke-width="1.5" stroke-linecap="round"/>
<path d="M139 89V237.5" stroke="#F4F4F4" stroke-width="1.5" stroke-linecap="round"/>
<path d="M199 89V146.5" stroke="#F4F4F4" stroke-width="1.5" stroke-linecap="round"/>
<path d="M259 89V200.5" stroke="#F4F4F4" stroke-width="1.5" stroke-linecap="round"/>
<path d="M319 89V146.5" stroke="#F4F4F4" stroke-width="1.5" stroke-linecap="round"/>
<path d="M1 247.487C9.32178 254.323 24.8938 267.758 45.7054 227.982C64.2842 192.473 74.1542 177.969 97.3778 205.976C110.998 222.402 122.924 253.99 153.114 230.483C173.669 214.479 168.79 136.958 211.754 155.963C229.172 164.191 225.688 202.476 257.04 202.476C271.203 202.476 280.96 198.675 293.036 157.464C308.132 105.95 317.421 105.95 336 119.954V293H1V247.487Z" fill="url(#paint0_linear_1_6302)"/>
<path d="M2.97656 247.5C11.2002 254.333 26.5885 267.765 47.1544 228C65.5141 192.5 75.2676 178 98.2172 206C111.677 222.421 120.786 252 153.296 230.499C179 213.5 168.787 137 211.244 155.999C228.456 164.225 225.013 202.5 255.995 202.5C269.991 202.5 279.633 198.7 291.567 157.5C306.484 106 315.664 106 334.024 120" stroke="#0066FF" stroke-width="5" stroke-linecap="round"/>
<circle cx="197" cy="153" r="11" fill="#0066FF"/>
<circle cx="197" cy="153" r="6" fill="white"/>
<defs>
<linearGradient id="paint0_linear_1_6302" x1="84.75" y1="157.25" x2="84.75" y2="157.25" gradientUnits="userSpaceOnUse">
<stop stop-color="#0066FF" stop-opacity="0.0784314"/>
<stop offset="1" stop-color="#0066FF" stop-opacity="0"/>
</linearGradient>
</defs>
</svg>
